<?xml version="1.0" encoding="UTF-8" standalone="no"?>
<svg
   xmlns:dc="http://purl.org/dc/elements/1.1/"
   xmlns:cc="http://creativecommons.org/ns#"
   xmlns:rdf="http://www.w3.org/1999/02/22-rdf-syntax-ns#"
   xmlns:svg="http://www.w3.org/2000/svg"
   xmlns="http://www.w3.org/2000/svg"
   xmlns:sodipodi="http://sodipodi.sourceforge.net/DTD/sodipodi-0.dtd"
   xmlns:inkscape="http://www.inkscape.org/namespaces/inkscape"
   version="1.0"
   x="0px"
   y="0px"
   viewBox="0 0 100 100"
   enable-background="new 0 0 83.7 114.3"
   xml:space="preserve"
   id="svg873"
   sodipodi:docname="dg_sfavicon.svg"
   width="100"
   height="100"
   inkscape:version="0.92.2 5c3e80d, 2017-08-06"><metadata
     id="metadata879"><rdf:RDF><cc:Work
         rdf:about=""><dc:format>image/svg+xml</dc:format><dc:type
           rdf:resource="http://purl.org/dc/dcmitype/StillImage" /><dc:title></dc:title></cc:Work></rdf:RDF></metadata><defs
     id="defs877" /><sodipodi:namedview
     pagecolor="#ffffff"
     bordercolor="#666666"
     borderopacity="1"
     objecttolerance="10"
     gridtolerance="10"
     guidetolerance="10"
     inkscape:pageopacity="0"
     inkscape:pageshadow="2"
     inkscape:window-width="1280"
     inkscape:window-height="755"
     id="namedview875"
     showgrid="false"
     inkscape:zoom="4.2484689"
     inkscape:cx="41.849998"
     inkscape:cy="43.19203"
     inkscape:window-x="0"
     inkscape:window-y="1"
     inkscape:window-maximized="1"
     inkscape:current-layer="svg873" /><circle
     style="fill:#164450;fill-opacity:1;stroke-width:0.9906562"
     id="path881"
     cx="50.324551"
     cy="49.910828"
     r="47.5"
     inkscape:export-filename="/Users/johnmola/Google Drive/Personal/Websites/discgolfR.github.io/assets/img/dg_sfavicon.png"
     inkscape:export-xdpi="96"
     inkscape:export-ydpi="96" /><path
     d="m 29.013188,22.720918 c 0,15.225539 5.171221,28.309986 12.524053,34.098862 -4.120817,0.0793 -7.837633,0.2379 -10.988847,0.475798 -8.645636,0.713698 -9.53444,1.585994 -9.29204,2.775489 l 3.716817,10.546858 c 0.565602,1.110196 1.616007,1.823893 7.999233,2.378991 4.040018,0.317199 9.21124,0.555097 14.705663,0.634397 v 16.335735 c 0,1.189495 1.050405,2.220392 2.26241,2.220392 h 0.0808 c 1.212005,0 2.26241,-1.030897 2.26241,-2.220392 V 73.631313 c 5.494423,-0.0793 10.584845,-0.237899 14.544062,-0.634397 6.383227,-0.555098 7.676032,-1.348095 7.999234,-2.378991 l 3.797615,-10.546858 c 0.3232,-1.189495 -0.646403,-2.061791 -9.21124,-2.696188 -3.151213,-0.2379 -6.868029,-0.396499 -10.988846,-0.475799 7.352831,-5.788876 12.524053,-18.952623 12.524053,-34.098863 l -0.161601,-4.361482 c 0,-1.189495 -1.050404,-1.903192 -6.706428,-2.537589 -3.232014,-0.317199 -7.352832,-0.555099 -11.796851,-0.634398 v -1.110196 c 0,-1.268795 -1.050404,-2.220391 -2.26241,-2.220391 -1.292805,0 -2.262409,1.030896 -2.262409,2.220391 v 1.110196 c -4.444019,0.0793 -8.645637,0.237899 -11.877651,0.634398 -5.413623,0.555097 -6.625628,1.268795 -6.706428,2.378989 z m 43.066583,37.350149 c -4.120817,0.396499 -10.988846,0.792997 -19.796084,0.872297 v -1.110195 c 0.727203,-0.1586 1.373606,-0.317199 2.020008,-0.555098 7.918435,0.0793 13.978461,0.396498 17.776076,0.792996 z m -4.84802,2.854789 -1.454406,7.850669 c -1.777608,0.158599 -3.878417,0.237898 -6.302427,0.396498 l 0.646402,-7.929968 c 2.585612,-0.0793 5.009622,-0.158599 7.110431,-0.317199 z m 1.373606,-40.204938 c 0,13.877444 -4.363218,25.930995 -10.584845,31.561273 4.120817,-6.581873 6.787228,-18.159627 6.787228,-31.561273 0,-0.872297 0,-1.348095 0,-1.903192 1.696808,-0.1586 2.908813,-0.396499 3.797617,-0.634398 -0.0808,0.872296 0,1.744593 0,2.53759 z M 55.2733,54.044291 c 2.828012,-7.692069 3.959217,-21.173014 3.959217,-31.323373 0,-0.713697 0,-1.030896 0,-1.427394 1.050404,-0.0793 2.100809,-0.1586 2.989613,-0.2379 0,0.475798 0,0.951597 0,1.665294 0.0808,14.591141 -2.989613,25.851696 -6.94883,31.323373 z M 52.364488,17.32854 c 6.948829,0.0793 12.120051,0.555097 14.786463,1.030896 -2.585612,0.475798 -7.756834,0.951596 -14.786463,1.030895 z m 0,4.202882 c 1.535206,0 3.070413,-0.0793 4.524819,-0.0793 0,0.317198 0,0.713696 0,1.348094 0,15.780637 -2.18161,27.27909 -4.524819,32.27497 z m -4.60562,-4.202882 v 2.061791 c -7.02963,-0.0793 -12.200853,-0.555097 -14.867264,-1.030895 2.666411,-0.475799 7.837634,-0.951597 14.867264,-1.030896 z m -3.070413,36.715751 c -3.878417,-5.471677 -7.02963,-16.732232 -7.02963,-31.323373 0,-0.792997 0,-1.189496 0,-1.665294 0.969604,0.0793 1.939208,0.1586 2.989613,0.2379 0,0.396498 0,0.792997 0,1.427394 0,10.150359 1.212005,23.631304 4.040017,31.323373 z M 43.072448,22.720918 c 0,-0.634397 0,-1.030896 0,-1.348095 1.454406,0.0793 3.070413,0.0793 4.605619,0.0793 V 55.233787 C 45.415658,50.475807 43.072448,38.818753 43.072448,22.720918 Z m -11.63525,0 c 0,-0.872297 0,-1.665294 0.0808,-2.53759 0.888804,0.237899 2.100809,0.475798 3.797616,0.634398 0,0.555097 0,1.030895 0,1.903192 0,13.480945 2.666412,24.9794 6.78723,31.561273 C 35.719616,48.731213 31.437198,36.677662 31.437198,22.720918 Z m 14.14006,36.557153 c 0.727204,0.237899 1.454407,0.475797 2.18161,0.634397 v 1.030896 c -8.888038,-0.0793 -15.756067,-0.396499 -19.876885,-0.872297 3.797616,-0.396498 9.857642,-0.713697 17.695275,-0.792996 z m -6.221626,3.964984 0.646402,7.929968 c -2.181608,-0.0793 -4.201618,-0.237899 -5.898425,-0.317199 l -1.131205,-7.850669 c 1.939209,0.0793 4.120818,0.1586 6.383228,0.2379 z M 24.488368,62.132859 c 1.373606,0.2379 3.312815,0.475798 5.979226,0.713697 0.0808,0 0.0808,0 0.161601,0 l 1.131204,7.771369 c -2.42401,-0.237898 -3.959216,-0.555097 -4.524819,-0.792997 z m 17.856877,9.119464 -0.646403,-7.929969 c 1.939208,0.0793 3.959216,0.0793 6.060026,0.0793 v 7.929968 c -1.939209,0 -3.716816,-0.0793 -5.413623,-0.0793 z m 10.019243,-7.850669 c 1.858407,0 3.716815,0 5.494423,-0.0793 l -0.646403,7.929968 c -1.535206,0.0793 -3.151213,0.0793 -4.84802,0.0793 z m 20.361687,6.423274 c -0.565603,0.2379 -2.10081,0.555099 -4.52482,0.792997 l 1.454406,-7.771369 c 2.585611,-0.237899 4.444019,-0.396498 5.817625,-0.634397 z"
     id="path867"
     inkscape:connector-curvature="0"
     style="fill:#ffdd55;stroke-width:0.80046499"
     inkscape:export-filename="/Users/johnmola/Google Drive/Personal/Websites/discgolfR.github.io/assets/img/dg_sfavicon.png"
     inkscape:export-xdpi="96"
     inkscape:export-ydpi="96" /></svg>